<svg id="svg10654" height="512" viewBox="0 0 6.3499999 6.3500002" width="512" xmlns="http://www.w3.org/2000/svg" xmlns:svg="http://www.w3.org/2000/svg"><g id="layer1" transform="translate(0 -290.65)"><path id="path12972" d="m1.0904014 291.70631a.26464501.26464501 0 1 0 0 .52916h3.4065105a.26460982.26460982 0 0 0 .00568 0c.342887-.007.5833123.0991.7580931.29301.1747812.19384.2876635.49461.2950726.90227.0073.40251-.1039436.69273-.2816365.8847-.1776931.19198-.4314695.30076-.7772135.30076h-3.327958l.341581-.34159a.26460982.26460982 0 0 0 -.1932696-.4532.26460982.26460982 0 0 0 -.1819011.0801l-.79271657.79272a.26460982.26460982 0 0 0 0 .37517l.79271657.79271a.26516505.26516505 0 1 0 .3751707-.37465l-.3431315-.3421h3.3295128c.4645359 0 .8804974-.16252 1.1658203-.47077.285322-.30826.4313934-.74667.4221965-1.25367-.0091-.50184-.1515213-.93542-.4314981-1.24592-.2799771-.31051-.692743-.47822-1.1601361-.4687z" font-variant-ligatures="normal" font-variant-position="normal" font-variant-caps="normal" font-variant-numeric="normal" font-variant-alternates="normal" font-feature-settings="normal" text-indent="0" text-align="start" text-decoration-line="none" text-decoration-style="solid" text-decoration-color="rgb(0,0,0)" text-transform="none" text-orientation="mixed" white-space="normal" shape-padding="0" isolation="auto" mix-blend-mode="normal" solid-color="rgb(0,0,0)" solid-opacity="1" vector-effect="none"/></g></svg>