<svg id="svg" version="1.1" xmlns="http://www.w3.org/2000/svg" xmlns:xlink="http://www.w3.org/1999/xlink" width="400" height="400" viewBox="0, 0, 400,400"><g id="svgg"><path id="path0" d="M34.180 97.306 C 32.937 97.743,32.467 97.890,31.836 98.040 C 31.621 98.091,30.979 98.465,30.408 98.871 C 29.838 99.277,29.254 99.609,29.111 99.609 C 28.967 99.609,28.028 100.387,27.023 101.337 C 26.018 102.287,24.826 103.385,24.374 103.778 C 23.923 104.171,22.013 105.898,20.131 107.617 C 18.249 109.336,16.261 111.094,15.714 111.523 C 15.167 111.953,13.814 113.228,12.708 114.355 C 11.603 115.483,10.566 116.406,10.404 116.406 C 10.243 116.406,9.357 117.153,8.434 118.066 C 7.512 118.979,6.164 120.229,5.439 120.843 C 4.217 121.877,3.543 122.744,1.919 125.366 C -0.493 129.259,-0.674 135.773,1.501 140.430 C 2.827 143.268,3.837 144.369,11.535 151.367 C 13.426 153.086,15.444 154.932,16.019 155.469 C 16.595 156.006,18.807 158.023,20.935 159.952 C 23.063 161.881,25.255 163.902,25.805 164.444 C 26.356 164.986,28.377 166.818,30.298 168.515 C 32.218 170.213,34.237 172.058,34.784 172.617 C 35.331 173.176,37.265 174.949,39.081 176.557 C 40.897 178.166,43.022 180.099,43.803 180.854 C 44.583 181.609,46.594 183.457,48.270 184.961 C 53.065 189.264,55.453 191.432,57.993 193.793 C 59.290 194.999,63.252 198.602,66.797 201.800 C 74.842 209.058,117.436 247.929,123.242 253.312 C 128.134 257.847,128.034 257.755,142.773 271.123 C 148.789 276.579,153.902 281.221,154.135 281.439 C 154.882 282.139,170.592 296.472,180.469 305.466 C 185.732 310.259,191.709 315.706,193.750 317.571 C 195.791 319.436,199.834 323.119,202.734 325.757 C 205.635 328.394,208.271 330.841,208.594 331.194 C 208.916 331.547,209.795 332.342,210.547 332.962 C 211.299 333.581,213.672 335.710,215.820 337.693 C 217.969 339.676,221.924 343.274,224.609 345.688 C 227.295 348.101,229.937 350.543,230.481 351.112 C 231.025 351.682,232.080 352.654,232.825 353.271 C 233.570 353.888,235.850 355.930,237.891 357.809 C 239.932 359.687,247.754 366.822,255.273 373.664 C 262.793 380.505,271.117 388.081,273.771 390.499 C 276.425 392.917,278.710 394.880,278.849 394.862 C 279.540 394.772,280.105 394.954,279.946 395.215 C 279.497 395.951,287.324 396.088,289.718 395.386 C 293.009 394.420,298.833 389.290,298.827 387.363 C 298.826 387.116,298.457 387.529,298.008 388.281 C 297.111 389.782,294.161 392.969,293.669 392.969 C 293.499 392.969,293.359 392.354,293.359 391.602 C 293.359 390.404,293.480 390.234,294.336 390.234 C 295.296 390.234,295.313 390.182,295.313 387.109 L 295.313 383.984 296.719 383.984 L 298.126 383.984 297.875 381.348 C 297.373 376.070,296.934 359.180,297.296 359.049 C 297.509 358.972,297.656 351.354,297.656 340.397 C 297.656 330.210,297.806 321.875,297.988 321.875 C 298.171 321.875,298.416 316.300,298.533 309.486 C 298.680 300.966,298.881 297.053,299.178 296.954 C 299.443 296.865,299.608 295.656,299.606 293.815 L 299.603 290.820 297.360 289.033 C 291.087 284.036,244.891 248.945,150.089 177.166 C 133.487 164.596,117.928 152.770,115.513 150.886 C 113.097 149.002,106.642 144.079,101.166 139.945 C 88.153 130.120,74.363 119.689,64.648 112.322 C 60.352 109.063,54.693 104.777,52.075 102.797 C 44.886 97.362,39.080 95.580,34.180 97.306 M299.700 383.203 C 299.700 383.955,299.780 384.263,299.879 383.887 C 299.977 383.511,299.977 382.896,299.879 382.520 C 299.780 382.144,299.700 382.451,299.700 383.203 " stroke="none" fill="#0f82cb" fill-rule="evenodd"></path><path id="path1" d="M288.281 1.442 C 285.467 1.912,278.125 4.958,278.125 5.655 C 278.125 5.726,279.048 5.419,280.176 4.972 C 287.023 2.259,295.518 5.756,298.672 12.585 L 299.805 15.039 300.003 96.680 C 300.112 141.582,300.243 176.870,300.296 175.098 L 300.391 171.875 350.000 171.875 L 399.609 171.875 399.609 117.250 C 399.609 64.162,399.588 62.540,398.839 59.613 C 397.399 53.982,393.973 48.826,389.482 45.529 C 387.988 44.432,329.860 16.157,305.815 4.830 C 298.890 1.568,293.617 0.549,288.281 1.442 " stroke="none" fill="#49b1f3" fill-rule="evenodd"></path><path id="path2" d="M291.509 1.062 C 292.103 1.151,292.982 1.149,293.462 1.056 C 293.943 0.964,293.457 0.890,292.383 0.893 C 291.309 0.896,290.916 0.972,291.509 1.062 M283.008 4.150 C 282.578 4.258,281.348 4.628,280.273 4.972 C 279.199 5.315,278.276 5.567,278.221 5.531 C 278.084 5.441,276.415 6.901,270.922 11.914 C 268.333 14.277,266.022 16.387,265.786 16.602 C 265.550 16.816,263.720 18.486,261.719 20.313 C 259.717 22.139,257.887 23.809,257.650 24.023 C 255.634 25.856,243.565 36.862,242.188 38.125 C 241.221 39.011,234.102 45.501,226.367 52.548 C 218.633 59.594,209.404 68.004,205.859 71.238 C 202.314 74.471,197.480 78.877,195.117 81.029 C 192.754 83.181,189.678 86.001,188.281 87.295 C 186.885 88.590,183.984 91.242,181.836 93.190 C 179.688 95.138,175.820 98.645,173.242 100.983 C 170.664 103.321,167.407 106.297,166.004 107.597 C 161.968 111.338,159.870 113.254,148.242 123.814 C 142.227 129.278,136.162 134.861,134.766 136.221 L 132.227 138.694 133.323 139.660 C 133.973 140.233,134.899 140.625,135.602 140.625 C 136.484 140.625,137.811 141.420,140.820 143.750 C 144.008 146.219,145.129 146.876,146.158 146.878 C 147.254 146.881,149.416 148.368,159.766 156.240 C 170.994 164.781,172.207 165.601,173.633 165.619 C 174.973 165.635,175.771 166.081,179.246 168.757 C 182.840 171.523,183.483 171.875,184.947 171.875 C 186.404 171.875,187.085 172.242,190.749 175.000 L 194.899 178.125 201.778 178.125 L 208.657 178.125 240.754 153.823 C 258.408 140.457,275.488 127.486,278.711 124.999 L 284.570 120.476 284.687 118.051 C 284.751 116.717,284.970 115.625,285.175 115.625 C 285.395 115.625,285.547 113.072,285.547 109.375 C 285.547 104.080,285.636 103.125,286.133 103.125 C 286.605 103.125,286.719 102.517,286.719 100.000 C 286.719 98.177,286.882 96.875,287.109 96.875 C 287.337 96.875,287.500 95.573,287.500 93.750 C 287.500 91.927,287.663 90.625,287.891 90.625 C 288.118 90.625,288.281 89.323,288.281 87.500 C 288.281 85.677,288.444 84.375,288.672 84.375 C 288.900 84.375,289.063 83.073,289.063 81.250 L 289.063 78.125 290.625 78.125 L 292.188 78.125 292.188 73.499 C 292.188 65.408,292.630 59.375,293.224 59.375 C 293.643 59.375,293.750 58.103,293.750 53.125 C 293.750 47.830,293.840 46.875,294.336 46.875 C 294.832 46.875,294.922 45.942,294.922 40.820 L 294.922 34.766 296.423 34.766 L 297.925 34.766 298.178 28.223 C 298.593 17.476,299.194 13.240,299.730 17.285 C 299.823 17.983,299.837 17.677,299.761 16.605 C 299.247 9.313,289.948 2.399,283.008 4.150 M37.603 96.765 C 38.197 96.854,39.076 96.852,39.556 96.759 C 40.037 96.667,39.551 96.593,38.477 96.596 C 37.402 96.599,37.009 96.675,37.603 96.765 " stroke="none" fill="#2786c3" fill-rule="evenodd"></path><path id="path3" d="M399.706 117.676 L 399.609 171.875 350.060 171.875 L 300.511 171.875 300.255 176.624 C 300.115 179.236,300.000 226.965,300.000 282.688 C 300.000 382.524,299.989 384.036,299.230 386.196 C 296.641 393.559,287.103 398.116,280.371 395.205 C 278.077 394.213,278.654 394.784,281.292 396.115 C 290.067 400.545,296.134 399.887,310.607 392.938 C 315.623 390.530,322.012 387.466,324.805 386.130 C 340.610 378.569,380.281 359.467,384.006 357.624 C 391.108 354.109,394.555 350.865,397.349 345.068 C 400.216 339.121,400.016 350.520,399.904 199.414 C 399.849 124.648,399.760 87.866,399.706 117.676 " stroke="none" fill="#2fa7f3" fill-rule="evenodd"></path><path id="path4" d="M298.686 18.848 C 298.546 20.405,298.317 24.624,298.178 28.223 L 297.925 34.766 296.423 34.766 L 294.922 34.766 294.922 40.820 C 294.922 45.942,294.832 46.875,294.336 46.875 C 293.840 46.875,293.750 47.830,293.750 53.125 C 293.750 58.103,293.643 59.375,293.224 59.375 C 292.630 59.375,292.188 65.408,292.188 73.499 L 292.188 78.125 290.625 78.125 L 289.063 78.125 289.063 81.250 C 289.063 83.073,288.900 84.375,288.672 84.375 C 288.444 84.375,288.281 85.677,288.281 87.500 C 288.281 89.323,288.118 90.625,287.891 90.625 C 287.663 90.625,287.500 91.927,287.500 93.750 C 287.500 95.573,287.337 96.875,287.109 96.875 C 286.882 96.875,286.719 98.177,286.719 100.000 C 286.719 102.517,286.605 103.125,286.133 103.125 C 285.636 103.125,285.547 104.080,285.547 109.375 C 285.547 113.072,285.395 115.625,285.175 115.625 C 284.970 115.625,284.751 116.717,284.687 118.051 L 284.570 120.476 278.711 124.999 C 275.488 127.486,258.408 140.457,240.754 153.823 L 208.657 178.125 201.778 178.125 L 194.899 178.125 190.749 175.000 C 187.085 172.242,186.404 171.875,184.947 171.875 C 183.483 171.875,182.840 171.523,179.246 168.757 C 175.771 166.081,174.973 165.635,173.633 165.619 C 172.207 165.601,170.994 164.781,159.766 156.240 C 149.416 148.368,147.254 146.881,146.158 146.878 C 145.129 146.876,144.008 146.219,140.820 143.750 C 137.811 141.420,136.484 140.625,135.602 140.625 C 134.913 140.625,133.960 140.230,133.323 139.681 L 132.227 138.737 133.203 137.648 C 133.740 137.050,132.246 138.328,129.883 140.489 C 127.520 142.650,123.750 146.094,121.506 148.141 L 117.426 151.863 112.815 148.380 C 110.278 146.465,108.203 144.986,108.203 145.095 C 108.203 145.203,110.708 147.178,113.770 149.483 C 118.603 153.123,168.436 190.948,187.207 205.225 C 190.806 207.962,193.750 210.111,193.750 210.000 C 193.750 209.890,190.937 207.669,187.500 205.066 C 184.063 202.463,181.250 200.188,181.250 200.012 C 181.250 199.676,193.888 189.928,218.945 170.935 C 223.027 167.841,229.004 163.309,232.227 160.863 C 235.449 158.418,241.777 153.623,246.289 150.208 C 250.801 146.793,256.250 142.652,258.398 141.006 C 262.465 137.889,282.133 123.020,293.457 114.501 L 300.000 109.579 299.997 64.848 C 299.993 22.572,299.889 16.016,299.221 16.016 C 299.067 16.016,298.827 17.290,298.686 18.848 M392.578 47.852 C 393.307 48.604,393.991 49.219,394.099 49.219 C 394.206 49.219,393.698 48.604,392.969 47.852 C 392.240 47.100,391.556 46.484,391.448 46.484 C 391.341 46.484,391.849 47.100,392.578 47.852 M48.828 100.076 C 49.150 100.416,60.752 109.290,74.609 119.795 C 104.862 142.729,108.239 145.261,107.227 144.250 C 105.945 142.971,47.795 98.984,48.828 100.076 M61.121 203.228 C 59.194 204.960,55.684 208.162,53.320 210.343 C 50.957 212.523,46.914 216.216,44.336 218.549 C 41.758 220.882,39.472 222.980,39.256 223.212 C 39.041 223.443,37.107 225.212,34.960 227.141 C 32.812 229.071,30.088 231.550,28.906 232.651 C 27.725 233.751,24.473 236.723,21.680 239.254 C -0.193 259.076,0.210 258.562,0.202 266.602 C 0.195 273.903,1.057 275.323,10.886 284.217 C 14.187 287.204,19.549 292.060,22.800 295.007 C 31.810 303.173,35.694 304.714,42.700 302.898 C 46.524 301.907,44.909 303.020,68.164 285.350 C 73.201 281.523,82.161 274.730,88.477 269.949 C 90.625 268.323,92.471 266.903,92.578 266.794 C 92.686 266.684,98.267 262.489,104.980 257.470 C 111.694 252.452,117.188 248.214,117.188 248.054 C 117.188 247.796,67.516 202.364,65.440 200.723 C 64.654 200.102,64.502 200.190,61.121 203.228 M194.141 210.331 C 194.141 210.438,196.602 212.381,199.609 214.648 C 202.617 216.916,205.078 218.683,205.078 218.575 C 205.078 218.468,202.617 216.525,199.609 214.258 C 196.602 211.991,194.141 210.223,194.141 210.331 M207.031 220.089 C 207.031 220.196,208.789 221.615,210.938 223.242 C 213.086 224.869,214.844 226.113,214.844 226.005 C 214.844 225.898,213.086 224.479,210.938 222.852 C 208.789 221.225,207.031 219.981,207.031 220.089 M218.359 228.682 C 218.359 228.790,220.117 230.209,222.266 231.836 C 224.414 233.463,226.172 234.706,226.172 234.599 C 226.172 234.491,224.414 233.072,222.266 231.445 C 220.117 229.818,218.359 228.575,218.359 228.682 M229.688 237.276 C 229.688 237.384,231.445 238.803,233.594 240.430 C 235.742 242.057,237.500 243.300,237.500 243.193 C 237.500 243.085,235.742 241.666,233.594 240.039 C 231.445 238.412,229.688 237.169,229.688 237.276 M239.453 244.698 C 239.453 244.805,241.211 246.225,243.359 247.852 C 245.508 249.479,247.266 250.722,247.266 250.614 C 247.266 250.507,245.508 249.088,243.359 247.461 C 241.211 245.834,239.453 244.591,239.453 244.698 M250.781 253.292 C 250.781 253.399,252.539 254.818,254.688 256.445 C 256.836 258.072,258.594 259.316,258.594 259.208 C 258.594 259.101,256.836 257.682,254.688 256.055 C 252.539 254.428,250.781 253.184,250.781 253.292 M262.109 261.879 C 262.109 261.986,263.516 263.145,265.234 264.453 C 266.953 265.761,268.359 266.744,268.359 266.637 C 268.359 266.529,266.953 265.371,265.234 264.063 C 263.516 262.754,262.109 261.772,262.109 261.879 M271.875 269.307 C 271.875 269.415,273.633 270.834,275.781 272.461 C 277.930 274.088,279.688 275.331,279.688 275.224 C 279.688 275.116,277.930 273.697,275.781 272.070 C 273.633 270.443,271.875 269.200,271.875 269.307 M144.922 273.169 C 144.922 273.236,145.493 273.808,146.191 274.439 L 147.461 275.586 146.314 274.316 C 145.244 273.133,144.922 272.867,144.922 273.169 M280.078 275.546 C 280.078 275.650,283.726 278.539,288.184 281.967 C 292.642 285.395,297.036 288.783,297.949 289.496 L 299.609 290.792 299.609 293.801 C 299.609 295.650,299.443 296.865,299.178 296.954 C 298.881 297.053,298.680 300.966,298.533 309.486 C 298.416 316.300,298.171 321.875,297.988 321.875 C 297.806 321.875,297.656 330.210,297.656 340.397 C 297.656 351.354,297.509 358.972,297.296 359.049 C 296.934 359.180,297.373 376.070,297.875 381.348 L 298.126 383.984 296.719 383.984 L 295.313 383.984 295.313 387.109 C 295.313 390.182,295.296 390.234,294.336 390.234 C 293.480 390.234,293.359 390.404,293.359 391.602 C 293.359 392.354,293.518 392.969,293.711 392.969 C 294.523 392.969,298.055 388.513,298.898 386.424 L 299.805 384.180 299.909 337.305 L 300.013 290.430 290.046 282.893 C 284.564 278.748,280.078 275.442,280.078 275.546 M158.203 285.278 C 158.203 285.346,158.774 285.917,159.473 286.548 L 160.742 287.695 159.595 286.426 C 158.525 285.242,158.203 284.977,158.203 285.278 M171.484 297.388 C 171.484 297.455,172.056 298.026,172.754 298.657 L 174.023 299.805 172.876 298.535 C 171.807 297.352,171.484 297.086,171.484 297.388 M176.172 301.685 C 176.172 301.752,176.743 302.323,177.441 302.954 L 178.711 304.102 177.564 302.832 C 176.494 301.649,176.172 301.383,176.172 301.685 M180.469 305.591 C 180.469 305.658,181.040 306.229,181.738 306.861 L 183.008 308.008 181.861 306.738 C 180.791 305.555,180.469 305.289,180.469 305.591 M189.453 313.794 C 189.453 313.861,190.024 314.433,190.723 315.064 L 191.992 316.211 190.845 314.941 C 189.775 313.758,189.453 313.492,189.453 313.794 M193.359 317.310 C 193.359 317.377,193.931 317.948,194.629 318.579 L 195.898 319.727 194.751 318.457 C 193.682 317.274,193.359 317.008,193.359 317.310 M199.219 322.852 C 199.948 323.604,200.632 324.219,200.739 324.219 C 200.847 324.219,200.338 323.604,199.609 322.852 C 198.881 322.100,198.196 321.484,198.089 321.484 C 197.982 321.484,198.490 322.100,199.219 322.852 M203.516 326.758 C 204.244 327.510,204.929 328.125,205.036 328.125 C 205.143 328.125,204.635 327.510,203.906 326.758 C 203.177 326.006,202.493 325.391,202.386 325.391 C 202.278 325.391,202.787 326.006,203.516 326.758 M212.500 334.961 C 213.229 335.713,213.913 336.328,214.020 336.328 C 214.128 336.328,213.619 335.713,212.891 334.961 C 212.162 334.209,211.478 333.594,211.370 333.594 C 211.263 333.594,211.771 334.209,212.500 334.961 M221.484 343.164 C 222.213 343.916,222.897 344.531,223.005 344.531 C 223.112 344.531,222.604 343.916,221.875 343.164 C 221.146 342.412,220.462 341.797,220.355 341.797 C 220.247 341.797,220.756 342.412,221.484 343.164 M225.781 347.070 C 226.510 347.822,227.194 348.438,227.302 348.438 C 227.409 348.438,226.901 347.822,226.172 347.070 C 225.443 346.318,224.759 345.703,224.651 345.703 C 224.544 345.703,225.052 346.318,225.781 347.070 M228.906 349.732 C 228.906 349.799,229.478 350.370,230.176 351.001 L 231.445 352.148 230.298 350.879 C 229.229 349.696,228.906 349.430,228.906 349.732 M392.557 352.246 L 391.211 353.711 392.676 352.365 C 394.039 351.112,394.320 350.781,394.022 350.781 C 393.957 350.781,393.297 351.440,392.557 352.246 M234.766 355.273 C 235.494 356.025,236.179 356.641,236.286 356.641 C 236.393 356.641,235.885 356.025,235.156 355.273 C 234.427 354.521,233.743 353.906,233.636 353.906 C 233.528 353.906,234.037 354.521,234.766 355.273 M237.891 357.935 C 237.891 358.002,238.462 358.573,239.160 359.204 L 240.430 360.352 239.282 359.082 C 238.213 357.899,237.891 357.633,237.891 357.935 M243.555 363.281 C 244.394 364.141,245.168 364.844,245.276 364.844 C 245.383 364.844,244.784 364.141,243.945 363.281 C 243.106 362.422,242.332 361.719,242.224 361.719 C 242.117 361.719,242.716 362.422,243.555 363.281 M247.852 367.188 C 248.691 368.047,249.465 368.750,249.573 368.750 C 249.680 368.750,249.081 368.047,248.242 367.188 C 247.403 366.328,246.629 365.625,246.521 365.625 C 246.414 365.625,247.012 366.328,247.852 367.188 M252.539 371.484 C 253.378 372.344,254.153 373.047,254.260 373.047 C 254.368 373.047,253.769 372.344,252.930 371.484 C 252.091 370.625,251.316 369.922,251.209 369.922 C 251.101 369.922,251.700 370.625,252.539 371.484 M256.836 375.391 C 257.675 376.250,258.450 376.953,258.557 376.953 C 258.664 376.953,258.066 376.250,257.227 375.391 C 256.387 374.531,255.613 373.828,255.506 373.828 C 255.398 373.828,255.997 374.531,256.836 375.391 M261.328 379.492 C 262.057 380.244,262.741 380.859,262.849 380.859 C 262.956 380.859,262.448 380.244,261.719 379.492 C 260.990 378.740,260.306 378.125,260.198 378.125 C 260.091 378.125,260.599 378.740,261.328 379.492 M336.328 380.664 C 335.791 380.971,335.527 381.222,335.742 381.222 C 335.957 381.222,336.572 380.971,337.109 380.664 C 337.646 380.357,337.910 380.106,337.695 380.106 C 337.480 380.106,336.865 380.357,336.328 380.664 M265.820 383.594 C 266.659 384.453,267.434 385.156,267.541 385.156 C 267.649 385.156,267.050 384.453,266.211 383.594 C 265.372 382.734,264.597 382.031,264.490 382.031 C 264.382 382.031,264.981 382.734,265.820 383.594 M326.172 385.547 C 325.420 385.959,324.980 386.295,325.195 386.295 C 325.410 386.295,326.201 385.959,326.953 385.547 C 327.705 385.135,328.145 384.798,327.930 384.798 C 327.715 384.798,326.924 385.135,326.172 385.547 M270.117 387.500 C 270.956 388.359,271.731 389.063,271.838 389.063 C 271.946 389.063,271.347 388.359,270.508 387.500 C 269.669 386.641,268.894 385.938,268.787 385.938 C 268.679 385.938,269.278 386.641,270.117 387.500 M274.414 391.406 C 275.472 392.480,276.426 393.359,276.533 393.359 C 276.641 393.359,275.863 392.480,274.805 391.406 C 273.747 390.332,272.793 389.453,272.686 389.453 C 272.578 389.453,273.356 390.332,274.414 391.406 M315.625 390.625 C 314.873 391.037,314.434 391.374,314.648 391.374 C 314.863 391.374,315.654 391.037,316.406 390.625 C 317.158 390.213,317.598 389.876,317.383 389.876 C 317.168 389.876,316.377 390.213,315.625 390.625 M305.859 395.313 C 305.107 395.724,304.668 396.061,304.883 396.061 C 305.098 396.061,305.889 395.724,306.641 395.313 C 307.393 394.901,307.832 394.564,307.617 394.564 C 307.402 394.564,306.611 394.901,305.859 395.313 M291.300 399.110 C 291.993 399.196,293.224 399.198,294.034 399.113 C 294.845 399.029,294.277 398.958,292.773 398.956 C 291.270 398.955,290.606 399.024,291.300 399.110 " stroke="none" fill="#1c73aa" fill-rule="evenodd"></path></g></svg>